<svg xmlns="http://www.w3.org/2000/svg" viewBox="-10 -10 254 230.30465510466215" role="img" aria-label="Sahra">
  <!-- Sahra logo (owner's design, site palette). Wordmark: Quicksand Bold (SIL OFL) as outlines. Generated; edit the generator, not by hand. -->
  <defs><mask id="t1"><rect x="-10" y="0" width="260" height="160" fill="#fff"/><circle cx="0" cy="84" r="15" fill="#000"/><circle cx="200" cy="84" r="15" fill="#000"/></mask></defs><rect x="0" y="30" width="200" height="100" rx="12" fill="#f3f2ef" mask="url(#t1)"/><polygon points="196.00,2.00 200.90,14.55 210.75,5.37 209.72,18.80 222.58,14.80 215.82,26.45 229.15,28.43 218.00,36.00 229.15,43.57 215.82,45.55 222.58,57.20 209.72,53.20 210.75,66.63 200.90,57.45 196.00,70.00 191.10,57.45 181.25,66.63 182.28,53.20 169.42,57.20 176.18,45.55 162.85,43.57 174.00,36.00 162.85,28.43 176.18,26.45 169.42,14.80 182.28,18.80 181.25,5.37 191.10,14.55" fill="#2f6bff" stroke="#0c0d10" stroke-width="5" stroke-linejoin="round" paint-order="stroke"/><path transform="translate(0 154) scale(0.7507) translate(-2.4921875 74)" d="M3.4 -8.3L3.4 -8.3Q2.4 -9.7 2.5 -11.9Q2.6 -14.1 5.1 -15.7L5.1 -15.7Q6.7 -16.7 8.5 -16.55Q10.3 -16.4 12 -14.7L12 -14.7Q14.9 -11.8 18.1 -10.2Q21.3 -8.6 26.1 -8.6L26.1 -8.6Q27.6 -8.7 29.4 -9.05Q31.2 -9.4 32.55 -10.65Q33.9 -11.9 33.9 -14.5L33.9 -14.5Q33.9 -16.7 32.4 -18Q30.9 -19.3 28.45 -20.2Q26 -21.1 23 -21.9L23 -21.9Q19.9 -22.8 16.65 -23.9Q13.4 -25 10.7 -26.75Q8 -28.5 6.3 -31.4Q4.6 -34.3 4.6 -38.7L4.6 -38.7Q4.6 -43.7 7.4 -47.2Q10.2 -50.7 14.65 -52.6Q19.1 -54.5 24 -54.5L24 -54.5Q27.1 -54.5 30.5 -53.75Q33.9 -53 37 -51.35Q40.1 -49.7 42.2 -47L42.2 -47Q43.3 -45.5 43.5 -43.4Q43.7 -41.3 41.6 -39.6L41.6 -39.6Q40.1 -38.4 38.1 -38.55Q36.1 -38.7 34.8 -39.9L34.8 -39.9Q33.1 -42.1 30.25 -43.4Q27.4 -44.7 23.7 -44.7L23.7 -44.7Q22.2 -44.7 20.45 -44.35Q18.7 -44 17.4 -42.85Q16.1 -41.7 16.1 -39.2L16.1 -39.2Q16.1 -36.9 17.6 -35.55Q19.1 -34.2 21.65 -33.35Q24.2 -32.5 27.1 -31.7L27.1 -31.7Q30.1 -30.9 33.2 -29.8Q36.3 -28.7 38.9 -26.9Q41.5 -25.1 43.1 -22.25Q44.7 -19.4 44.7 -15L44.7 -15Q44.7 -9.9 41.7 -6.3Q38.7 -2.7 34.2 -0.85Q29.7 1 25 1L25 1Q19.1 1 13.2 -1.05Q7.3 -3.1 3.4 -8.3M99.3 -54.5L99.3 -54.5Q101.9 -54.5 103.6 -52.8Q105.3 -51.1 105.3 -48.4L105.3 -48.4L105.3 -6.1Q105.3 -3.5 103.6 -1.75Q101.9 0 99.3 0Q96.7 0 95 -1.8L95 -1.8Q93.3 -3.5 93.3 -6L93.3 -6Q92.1 -4.6 90.3 -3.3L90.3 -3.3Q87.9 -1.5 84.65 -0.25Q81.4 1 77.6 1L77.6 1Q70.7 1 65.1 -2.55Q59.5 -6.1 56.25 -12.35Q53 -18.6 53 -26.7L53 -26.7Q53 -34.9 56.25 -41.15Q59.5 -47.4 65 -50.95Q70.5 -54.5 77.2 -54.5L77.2 -54.5Q81.5 -54.5 85.1 -53.2Q88.7 -51.9 91.4 -49.9L91.4 -49.9Q92.4 -49.1 93.3 -48.3L93.3 -48.3L93.3 -48.4Q93.3 -51 95 -52.75Q96.7 -54.5 99.3 -54.5M79.1 -10L79.1 -10Q83.5 -10 86.8 -12.2Q90.1 -14.4 91.95 -18.2Q93.8 -22 93.8 -26.7L93.8 -26.7Q93.8 -31.5 91.95 -35.3Q90.1 -39.1 86.8 -41.3Q83.5 -43.5 79.1 -43.5L79.1 -43.5Q74.8 -43.5 71.5 -41.3Q68.2 -39.1 66.35 -35.3Q64.5 -31.5 64.5 -26.7L64.5 -26.7Q64.5 -22 66.35 -18.2Q68.2 -14.4 71.5 -12.2Q74.8 -10 79.1 -10M146.4 -54.5L146.4 -54.5Q153.6 -54.5 157.35 -51.4Q161.1 -48.3 162.5 -43.15Q163.9 -38 163.9 -31.7L163.9 -31.7L163.9 -6.1Q163.9 -3.5 162.2 -1.75Q160.5 0 157.9 0Q155.3 0 153.6 -1.75Q151.9 -3.5 151.9 -6.1L151.9 -6.1L151.9 -31.7Q151.9 -35 151.1 -37.65Q150.3 -40.3 148.2 -41.9Q146.1 -43.5 142.2 -43.5L142.2 -43.5Q138.4 -43.5 135.7 -41.9Q133 -40.3 131.65 -37.65Q130.3 -35 130.3 -31.7L130.3 -31.7L130.3 -6.1Q130.3 -3.5 128.6 -1.75Q126.9 0 124.3 0Q121.7 0 120 -1.75Q118.3 -3.5 118.3 -6.1L118.3 -6.1L118.3 -67.9Q118.3 -70.5 120 -72.25Q121.7 -74 124.3 -74Q126.9 -74 128.6 -72.25Q130.3 -70.5 130.3 -67.9L130.3 -67.9L130.3 -45.8Q130.8 -46.4 131.3 -47.1L131.3 -47.1Q132.9 -49 135.2 -50.7Q137.5 -52.4 140.3 -53.45Q143.1 -54.5 146.4 -54.5M182.9 0L182.9 0Q180.3 0 178.6 -1.75Q176.9 -3.5 176.9 -6.1L176.9 -6.1L176.9 -47.4Q176.9 -50 178.6 -51.75Q180.3 -53.5 182.9 -53.5Q185.5 -53.5 187.2 -51.75Q188.9 -50 188.9 -47.4L188.9 -47.4L188.9 -46.1Q189.8 -47.6 191.1 -49L191.1 -49Q192.8 -50.8 195 -52.05Q197.2 -53.3 199.7 -53.9Q202.2 -54.5 204.7 -54.5L204.7 -54.5Q207.7 -54.5 209.75 -52.8Q211.8 -51.1 211.8 -48.8L211.8 -48.8Q211.8 -45.5 210.1 -44.05Q208.4 -42.6 206.4 -42.6L206.4 -42.6Q204.5 -42.6 202.95 -43.3Q201.4 -44 199.4 -44L199.4 -44Q197.6 -44 195.75 -43.15Q193.9 -42.3 192.35 -40.5Q190.8 -38.7 189.85 -36.05Q188.9 -33.4 188.9 -29.8L188.9 -29.8L188.9 -6.1Q188.9 -3.5 187.2 -1.75Q185.5 0 182.9 0M262.9 -54.5L262.9 -54.5Q265.5 -54.5 267.2 -52.8Q268.9 -51.1 268.9 -48.4L268.9 -48.4L268.9 -6.1Q268.9 -3.5 267.2 -1.75Q265.5 0 262.9 0Q260.3 0 258.6 -1.8L258.6 -1.8Q256.9 -3.5 256.9 -6L256.9 -6Q255.7 -4.6 253.9 -3.3L253.9 -3.3Q251.5 -1.5 248.25 -0.25Q245 1 241.2 1L241.2 1Q234.3 1 228.7 -2.55Q223.1 -6.1 219.85 -12.35Q216.6 -18.6 216.6 -26.7L216.6 -26.7Q216.6 -34.9 219.85 -41.15Q223.1 -47.4 228.6 -50.95Q234.1 -54.5 240.8 -54.5L240.8 -54.5Q245.1 -54.5 248.7 -53.2Q252.3 -51.9 255 -49.9L255 -49.9Q256 -49.1 256.9 -48.3L256.9 -48.3L256.9 -48.4Q256.9 -51 258.6 -52.75Q260.3 -54.5 262.9 -54.5M242.7 -10L242.7 -10Q247.1 -10 250.4 -12.2Q253.7 -14.4 255.55 -18.2Q257.4 -22 257.4 -26.7L257.4 -26.7Q257.4 -31.5 255.55 -35.3Q253.7 -39.1 250.4 -41.3Q247.1 -43.5 242.7 -43.5L242.7 -43.5Q238.4 -43.5 235.1 -41.3Q231.8 -39.1 229.95 -35.3Q228.1 -31.5 228.1 -26.7L228.1 -26.7Q228.1 -22 229.95 -18.2Q231.8 -14.4 235.1 -12.2Q238.4 -10 242.7 -10" fill="#f3f2ef"/>
</svg>
